<?xml version="1.0" encoding="utf-8"?>
<!-- Generator: Adobe Illustrator 21.0.0, SVG Export Plug-In . SVG Version: 6.00 Build 0)  -->
<svg version="1.1" id="Layer_1" xmlns="http://www.w3.org/2000/svg" xmlns:xlink="http://www.w3.org/1999/xlink" x="0px" y="0px"
	 viewBox="0 0 1000 1003" style="enable-background:new 0 0 1000 1003;" xml:space="preserve">
<style type="text/css">
	.st0{fill:url(#Combined-Shape_1_);}
	.st1{fill:#D8D8D8;}
	.st2{fill:url(#Fire_1_);}
	.st3{fill:#0014FF;}
</style>
<title>Group</title>
<desc>Created with Sketch.</desc>
<g id="Page-1">
	<g id="Group">
		
			<linearGradient id="Combined-Shape_1_" gradientUnits="userSpaceOnUse" x1="180.3199" y1="741.8112" x2="180.3199" y2="741.7112" gradientTransform="matrix(999.1642 0 0 -1002.9412 -179669.5469 744444.3125)">
			<stop  offset="0" style="stop-color:#FBD249"/>
			<stop  offset="1" style="stop-color:#F5A623"/>
		</linearGradient>
		<path id="Combined-Shape" class="st0" d="M514.6,453.6c-0.9-0.1-1.8-0.1-2.7-0.1c-21.7,0-39.3,17.6-39.3,39.4s17.6,39.4,39.3,39.4
			c17.7,0,32.7-11.8,37.6-28c-1.5,26.3-23.3,47.2-49.9,47.2c-27.6,0-50-22.5-50-50.1c0-27.7,22.4-50.1,50-50.1
			C504.9,451.3,509.9,452.1,514.6,453.6L514.6,453.6z"/>
		
			<g id="Rocket" transform="translate(659.379987, 392.638219) rotate(-39.000000) translate(-659.379987, -392.638219) translate(311.879987, 244.704395)">
			<polygon id="Flank-1" class="st1" points="154.1,118.9 166.4,118.8 170.9,123.1 171.1,127.5 159,127.9 159,123.7 			"/>
			<polygon id="Flank-2" class="st1" points="154,148.2 166.3,148.3 170.8,143.9 171,139.5 159,139.1 158.9,143.3 			"/>
			
				<linearGradient id="Fire_1_" gradientUnits="userSpaceOnUse" x1="-245.395" y1="119.6182" x2="-245.2991" y2="119.6182" gradientTransform="matrix(160.7629 92.4835 130.1831 -114.2078 24018.1055 36489.8594)">
				<stop  offset="0" style="stop-color:#8FC9FF"/>
				<stop  offset="1" style="stop-color:#0014FF"/>
			</linearGradient>
			<path id="Fire" class="st2" d="M152.8,140.9c5,0,7.2-1.4,7.2-7.3c0-6-2.2-7.3-7.2-7.3c-5,0-13.4,7.8-13.4,7.8
				S147.8,140.9,152.8,140.9z"/>
			<path id="Body" class="st1" d="M178.9,145.8c14.6,0,29.8-12.7,29.8-12.7s-15.3-11.9-29.8-11.9c-14.6,0-25.1,7.2-25.1,12.3
				C153.8,138.6,164.4,145.8,178.9,145.8z"/>
			
				<ellipse id="Window" transform="matrix(-1 2.844345e-06 -2.844345e-06 -1 373.6772 266.3289)" class="st3" cx="186.8" cy="133.2" rx="5.5" ry="5.5"/>
		</g>
	</g>
</g>
</svg>
